<svg width="24" height="24" viewBox="0 0 24 24" fill="none" xmlns="http://www.w3.org/2000/svg">
<g filter="url(#filter0_i_2794_15882)">
<path d="M4.75 15.25C3.78441 15.25 3.30162 15.25 3.00229 14.9007C2.70296 14.5514 2.76982 14.1202 2.90355 13.2579C3.06198 12.2362 3.34209 11.2347 3.73957 10.2751C4.39288 8.69788 5.35045 7.26477 6.55761 6.05761C7.76477 4.85045 9.19788 3.89288 10.7751 3.23957C11.7347 2.84209 12.7362 2.56198 13.7579 2.40355C14.6202 2.26982 15.0514 2.20296 15.4007 2.50229C15.75 2.80162 15.75 3.28441 15.75 4.25L15.75 13.25C15.75 14.1928 15.75 14.6642 15.4571 14.9571C15.1642 15.25 14.6928 15.25 13.75 15.25L4.75 15.25Z" fill="url(#paint0_linear_2794_15882)"/>
</g>
<g filter="url(#filter1_f_2794_15882)">
<path d="M20.1113 12.0567C20.3631 12.0567 20.489 12.0567 20.5896 12.1109C20.6737 12.1562 20.7499 12.2385 20.7887 12.3259C20.835 12.4303 20.826 12.547 20.8081 12.7806C20.6412 14.9539 19.7268 17.0047 18.2164 18.5573C16.7106 20.1052 14.7232 21.0441 12.6163 21.2199C12.3846 21.2392 12.2687 21.2489 12.1636 21.2028C12.076 21.1644 11.9927 21.0878 11.9471 21.0037C11.8925 20.9028 11.8925 20.777 11.8925 20.5255L11.8925 12.7812C11.8925 12.5276 11.8925 12.4008 11.9419 12.3039C11.9853 12.2187 12.0546 12.1495 12.1398 12.106C12.2366 12.0567 12.3634 12.0567 12.6171 12.0567L20.1113 12.0567Z" fill="url(#paint1_linear_2794_15882)" fill-opacity="0.32"/>
</g>
<mask id="path-3-inside-1_2794_15882" fill="white">
<path d="M19.75 12.25C20.7204 12.25 21.2056 12.25 21.5058 12.6211C21.8059 12.9922 21.7174 13.4066 21.5403 14.2353C21.1601 16.0143 20.2736 17.6614 18.9675 18.9675C17.6615 20.2736 16.0143 21.1601 14.2353 21.5403C13.4066 21.7174 12.9922 21.8059 12.6211 21.5058C12.25 21.2056 12.25 20.7204 12.25 19.75L12.25 14.25C12.25 13.3072 12.25 12.8358 12.5429 12.5429C12.8358 12.25 13.3072 12.25 14.25 12.25L19.75 12.25Z"/>
</mask>
<g filter="url(#filter2_i_2794_15882)">
<path d="M19.75 12.25C20.7204 12.25 21.2056 12.25 21.5058 12.6211C21.8059 12.9922 21.7174 13.4066 21.5403 14.2353C21.1601 16.0143 20.2736 17.6614 18.9675 18.9675C17.6615 20.2736 16.0143 21.1601 14.2353 21.5403C13.4066 21.7174 12.9922 21.8059 12.6211 21.5058C12.25 21.2056 12.25 20.7204 12.25 19.75L12.25 14.25C12.25 13.3072 12.25 12.8358 12.5429 12.5429C12.8358 12.25 13.3072 12.25 14.25 12.25L19.75 12.25Z" fill="url(#paint2_linear_2794_15882)"/>
</g>
<path d="M19.75 12.25C20.7204 12.25 21.2056 12.25 21.5058 12.6211C21.8059 12.9922 21.7174 13.4066 21.5403 14.2353C21.1601 16.0143 20.2736 17.6614 18.9675 18.9675C17.6615 20.2736 16.0143 21.1601 14.2353 21.5403C13.4066 21.7174 12.9922 21.8059 12.6211 21.5058C12.25 21.2056 12.25 20.7204 12.25 19.75L12.25 14.25C12.25 13.3072 12.25 12.8358 12.5429 12.5429C12.8358 12.25 13.3072 12.25 14.25 12.25L19.75 12.25Z" stroke="url(#paint3_linear_2794_15882)" mask="url(#path-3-inside-1_2794_15882)"/>
<defs>
<filter id="filter0_i_2794_15882" x="2.78906" y="2.29004" width="13.8666" height="12.96" filterUnits="userSpaceOnUse" color-interpolation-filters="sRGB">
<feFlood flood-opacity="0" result="BackgroundImageFix"/>
<feBlend mode="normal" in="SourceGraphic" in2="BackgroundImageFix" result="shape"/>
<feColorMatrix in="SourceAlpha" type="matrix" values="0 0 0 0 0 0 0 0 0 0 0 0 0 0 0 0 0 0 127 0" result="hardAlpha"/>
<feOffset dx="0.905652"/>
<feGaussianBlur stdDeviation="1.8113"/>
<feComposite in2="hardAlpha" operator="arithmetic" k2="-1" k3="1"/>
<feColorMatrix type="matrix" values="0 0 0 0 1 0 0 0 0 1 0 0 0 0 1 0 0 0 0.2 0"/>
<feBlend mode="normal" in2="shape" result="effect1_innerShadow_2794_15882"/>
</filter>
<filter id="filter1_f_2794_15882" x="9.89062" y="10.0566" width="12.9336" height="13.1797" filterUnits="userSpaceOnUse" color-interpolation-filters="sRGB">
<feFlood flood-opacity="0" result="BackgroundImageFix"/>
<feBlend mode="normal" in="SourceGraphic" in2="BackgroundImageFix" result="shape"/>
<feGaussianBlur stdDeviation="1" result="effect1_foregroundBlur_2794_15882"/>
</filter>
<filter id="filter2_i_2794_15882" x="12.25" y="12.25" width="9.90595" height="9.90497" filterUnits="userSpaceOnUse" color-interpolation-filters="sRGB">
<feFlood flood-opacity="0" result="BackgroundImageFix"/>
<feBlend mode="normal" in="SourceGraphic" in2="BackgroundImageFix" result="shape"/>
<feColorMatrix in="SourceAlpha" type="matrix" values="0 0 0 0 0 0 0 0 0 0 0 0 0 0 0 0 0 0 127 0" result="hardAlpha"/>
<feOffset dx="0.452826" dy="0.452826"/>
<feGaussianBlur stdDeviation="0.905652"/>
<feComposite in2="hardAlpha" operator="arithmetic" k2="-1" k3="1"/>
<feColorMatrix type="matrix" values="0 0 0 0 1 0 0 0 0 1 0 0 0 0 1 0 0 0 0.24 0"/>
<feBlend mode="normal" in2="shape" result="effect1_innerShadow_2794_15882"/>
</filter>
<linearGradient id="paint0_linear_2794_15882" x1="6.5" y1="5.5" x2="14.052" y2="14.7721" gradientUnits="userSpaceOnUse">
<stop stop-color="#49C9C9"/>
<stop offset="1" stop-color="#0E8AA1"/>
</linearGradient>
<linearGradient id="paint1_linear_2794_15882" x1="13.4492" y1="13.1428" x2="16.0149" y2="15.5256" gradientUnits="userSpaceOnUse">
<stop stop-color="#053868"/>
<stop offset="1" stop-color="#053868" stop-opacity="0"/>
</linearGradient>
<linearGradient id="paint2_linear_2794_15882" x1="18.5" y1="19" x2="11.9801" y2="14.4669" gradientUnits="userSpaceOnUse">
<stop stop-color="#57C2C2"/>
<stop offset="1" stop-color="#ACE6E0"/>
</linearGradient>
<linearGradient id="paint3_linear_2794_15882" x1="13.1308" y1="13.6628" x2="17.5" y2="17" gradientUnits="userSpaceOnUse">
<stop stop-color="#279BAD" stop-opacity="0.32"/>
<stop offset="0.994792" stop-color="#249AAB" stop-opacity="0"/>
</linearGradient>
</defs>
</svg>
